<svg width="37" height="36" viewBox="0 0 37 36" fill="none" xmlns="http://www.w3.org/2000/svg">
<g id="ev-station-fill">
<path id="Subtract" fill-rule="evenodd" clip-rule="evenodd" d="M3.23291 4.5C3.23291 2.01472 5.24763 0 7.73291 0H21.2329C23.7182 0 25.7329 2.01472 25.7329 4.5V22.5C28.2182 22.5 30.2329 24.5147 30.2329 27V28.125C30.2329 28.7463 30.7366 29.25 31.3579 29.25C31.9795 29.25 32.4829 28.7464 32.4829 28.1254V20.25C32.4829 19.6689 32.2487 19.4008 31.6798 18.8207L31.6634 18.804C31.0863 18.2159 30.2329 17.346 30.2329 15.75V9C30.2329 8.70163 30.3514 8.41548 30.5624 8.2045L31.6874 7.07952C32.1268 6.64019 32.8391 6.64019 33.2784 7.07953L34.4034 8.20453C34.6144 8.4155 34.7329 8.70165 34.7329 9.00002V28.1254C34.7329 29.9896 33.2216 31.5 31.3579 31.5C29.4939 31.5 27.9829 29.989 27.9829 28.125V27C27.9829 25.7574 26.9755 24.75 25.7329 24.75V33.75H26.8579C27.4792 33.75 27.9829 34.2537 27.9829 34.875C27.9829 35.4963 27.4792 36 26.8579 36H2.10791C1.48659 36 0.98291 35.4963 0.98291 34.875C0.98291 34.2537 1.48659 33.75 2.10791 33.75H3.23291V4.5ZM8.23291 4.5C7.95677 4.5 7.73291 4.72386 7.73291 5V17.5C7.73291 17.7761 7.95677 18 8.23291 18H20.7329C21.0091 18 21.2329 17.7761 21.2329 17.5V5C21.2329 4.72386 21.0091 4.5 20.7329 4.5H8.23291Z" fill="#569E16"/>
</g>
</svg>
