<svg width="19" height="18" viewBox="0 0 19 18" fill="none" xmlns="http://www.w3.org/2000/svg">
<path d="M13.1578 0.0762815C13.384 0.207814 13.4896 0.477895 13.4126 0.727941L11.3866 7.31252H15.125C15.3494 7.31252 15.5524 7.44591 15.6414 7.65191C15.7304 7.85792 15.6884 8.09712 15.5346 8.26054L6.53463 17.823C6.35532 18.0135 6.06835 18.0553 5.8422 17.9238C5.61606 17.7922 5.51045 17.5221 5.58739 17.2721L7.61341 10.6875H3.87501C3.6506 10.6875 3.44766 10.5541 3.35865 10.3481C3.26964 10.1421 3.3116 9.90292 3.4654 9.7395L12.4654 0.177C12.6447 -0.0135083 12.9317 -0.055251 13.1578 0.0762815Z" fill="#FFF"/>
</svg>
