<svg width="42" height="38" viewBox="0 0 42 38" fill="none" xmlns="http://www.w3.org/2000/svg">
<g id="lightning-charge-fill">
<path id="Vector (Stroke)" d="M29.4049 0.161039C29.9201 0.438719 30.1606 1.00889 29.9854 1.53676L25.3705 15.4375H33.8858C34.3969 15.4375 34.8592 15.7191 35.0619 16.154C35.2647 16.5889 35.1691 17.0939 34.8188 17.4389L14.3188 37.6264C13.9104 38.0286 13.2567 38.1167 12.7416 37.839C12.2265 37.5614 11.9859 36.9912 12.1612 36.4633L16.776 22.5625H8.26077C7.74961 22.5625 7.28736 22.2809 7.08461 21.846C6.88187 21.4111 6.97743 20.9062 7.32777 20.5612L27.8278 0.373666C28.2362 -0.0285175 28.8898 -0.116641 29.4049 0.161039Z" fill="#569E16"/>
</g>
</svg>
