<svg width="26" height="30" viewBox="0 0 26 30" fill="none" xmlns="http://www.w3.org/2000/svg">
<path d="M8.48407 13.3041C6.98069 13.3041 5.75586 12.0748 5.75586 10.566C5.75586 9.05715 6.98069 7.82788 8.48407 7.82788C9.98746 7.82788 11.2123 9.05715 11.2123 10.566C11.2123 12.0748 9.98746 13.3041 8.48407 13.3041ZM8.48407 9.12704C7.69347 9.12704 7.04623 9.77252 7.04623 10.566C7.04623 11.3595 7.68937 12.0091 8.48407 12.0091C9.27878 12.0091 9.91782 11.3636 9.91782 10.566C9.91782 9.7684 9.27468 9.12704 8.48407 9.12704Z" fill="#1C355E"/>
<path d="M17.3649 13.3041C15.8615 13.3041 14.6367 12.0748 14.6367 10.566C14.6367 9.05715 15.8615 7.82788 17.3649 7.82788C18.8683 7.82788 20.0931 9.05715 20.0931 10.566C20.0931 12.0748 18.8683 13.3041 17.3649 13.3041ZM17.3649 9.12704C16.5743 9.12704 15.9271 9.77252 15.9271 10.566C15.9271 11.3595 16.5702 12.0091 17.3649 12.0091C18.1596 12.0091 18.7987 11.3636 18.7987 10.566C18.7987 9.7684 18.1555 9.12704 17.3649 9.12704Z" fill="#1C355E"/>
<path d="M12.9899 23.2863C11.4865 23.2863 10.2617 22.057 10.2617 20.5482C10.2617 19.0393 11.4865 17.8101 12.9899 17.8101C14.4933 17.8101 15.7181 19.0393 15.7181 20.5482C15.7181 22.057 14.4933 23.2863 12.9899 23.2863ZM12.9899 19.1092C12.1993 19.1092 11.5521 19.7547 11.5521 20.5482C11.5521 21.3416 12.1952 21.9912 12.9899 21.9912C13.7846 21.9912 14.4237 21.3458 14.4237 20.5482C14.4237 19.7506 13.7805 19.1092 12.9899 19.1092Z" fill="#1C355E"/>
<path d="M7.05032 19.5038C5.98934 19.5038 5.125 18.6363 5.125 17.5715C5.125 16.5066 5.98934 15.6392 7.05032 15.6392C8.11129 15.6392 8.97563 16.5066 8.97563 17.5715C8.97563 18.6363 8.11129 19.5038 7.05032 19.5038ZM7.05032 16.556C6.4932 16.556 6.0385 17.0123 6.0385 17.5715C6.0385 18.1306 6.4932 18.5869 7.05032 18.5869C7.60743 18.5869 8.06213 18.1306 8.06213 17.5715C8.06213 17.0123 7.60743 16.556 7.05032 16.556Z" fill="#1C355E"/>
<path d="M18.7984 19.5038C17.7374 19.5038 16.873 18.6363 16.873 17.5715C16.873 16.5066 17.7374 15.6392 18.7984 15.6392C19.8593 15.6392 20.7237 16.5066 20.7237 17.5715C20.7237 18.6363 19.8593 19.5038 18.7984 19.5038ZM18.7984 16.556C18.2413 16.556 17.7865 17.0123 17.7865 17.5715C17.7865 18.1306 18.2413 18.5869 18.7984 18.5869C19.3555 18.5869 19.8102 18.1306 19.8102 17.5715C19.8102 17.0123 19.3555 16.556 18.7984 16.556Z" fill="#1C355E"/>
<path d="M25.4511 14.6485C25.4511 8.62546 21.2932 3.57681 15.7016 2.23242C15.7016 1.86241 15.6524 0.0657805 14.6365 0V0.123338H11.2119V0C10.2615 0.0616692 10.155 1.62807 10.1468 2.13786C4.35449 3.33425 0 8.48157 0 14.6485C0 20.8154 4.71088 26.3697 10.8514 27.2824C10.8309 27.3606 10.8145 27.4387 10.8145 27.525V29.1079C10.8145 29.6012 11.2119 30 11.7035 30H14.4317C14.9233 30 15.3206 29.6012 15.3206 29.1079V27.525C15.3206 27.3976 15.2919 27.2783 15.2469 27.1714C21.0679 25.9997 25.4552 20.8401 25.4552 14.6526L25.4511 14.6485ZM11.2119 0.444018H14.6365V2.01864C14.0139 1.92408 13.3748 1.87474 12.7235 1.87474C12.2114 1.87474 11.7076 1.90763 11.2119 1.9693V0.444018ZM12.7235 24.828C7.13187 24.828 2.58074 20.2604 2.58074 14.6485C2.58074 9.03659 7.13187 4.46485 12.7235 4.46485C18.3151 4.46485 22.8662 9.03248 22.8662 14.6444C22.8662 20.2563 18.3151 24.8239 12.7235 24.8239V24.828Z" fill="#1C355E"/>
</svg>
